<svg xmlns="http://www.w3.org/2000/svg" viewBox="0 0 85 93.823" overflow="visible"><path d="m44.262.768 35.659 20.588a5.736 5.736 0 0 1 2.867 4.967V67.5a5.736 5.736 0 0 1-2.867 4.967L44.262 93.054a5.736 5.736 0 0 1-5.736 0L2.868 72.466A5.736 5.736 0 0 1 0 67.499V26.323a5.736 5.736 0 0 1 2.868-4.967L38.526.768a5.736 5.736 0 0 1 5.736 0z" class="4jedHcbU0X" fill="#228cdd"/><path d="M59.409 24.394H23.38a4.517 4.517 0 0 0-4.503 4.503v36.028a4.517 4.517 0 0 0 4.503 4.503H59.41a4.517 4.517 0 0 0 4.503-4.503V28.897a4.517 4.517 0 0 0-4.503-4.503zm0 2.251c1.24 0 2.252 1.01 2.252 2.252v10.272H49.135V26.645H59.41zM35.906 41.422h10.978V52.4H35.906V41.422zm-14.778 0h12.526V52.4H21.128V41.422zm28.007 0h12.526V52.4H49.135V41.422zM35.906 26.645h10.978v12.526H35.906V26.645zm-12.526 0h10.274V39.17H21.128V28.897a2.255 2.255 0 0 1 2.252-2.252zm0 40.531a2.255 2.255 0 0 1-2.252-2.251V54.65h12.526v12.525H23.38zm12.526-12.525h10.978v12.525H35.906V54.651zM59.41 67.176H49.135V54.651h12.526v10.274a2.255 2.255 0 0 1-2.252 2.251z" fill-rule="evenodd" class="s444b1MTM4" fill="#fff"/></svg>