<svg xmlns="http://www.w3.org/2000/svg" viewBox="0 0 300 93.823" overflow="visible"><path d="m44.262.768 35.659 20.588a5.736 5.736 0 0 1 2.867 4.967V67.5a5.736 5.736 0 0 1-2.867 4.967L44.262 93.054a5.736 5.736 0 0 1-5.736 0L2.868 72.466A5.736 5.736 0 0 1 0 67.499V26.323a5.736 5.736 0 0 1 2.868-4.967L38.526.768a5.736 5.736 0 0 1 5.736 0z" class="4jedHcbU0X" fill="#228cdd"/><path d="M59.409 24.394H23.38a4.517 4.517 0 0 0-4.503 4.503v36.028a4.517 4.517 0 0 0 4.503 4.503H59.41a4.517 4.517 0 0 0 4.503-4.503V28.897a4.517 4.517 0 0 0-4.503-4.503zm0 2.251c1.24 0 2.252 1.01 2.252 2.252v10.272H49.135V26.645H59.41zM35.906 41.422h10.978V52.4H35.906V41.422zm-14.778 0h12.526V52.4H21.128V41.422zm28.007 0h12.526V52.4H49.135V41.422zM35.906 26.645h10.978v12.526H35.906V26.645zm-12.526 0h10.274V39.17H21.128V28.897a2.255 2.255 0 0 1 2.252-2.252zm0 40.531a2.255 2.255 0 0 1-2.252-2.251V54.65h12.526v12.525H23.38zm12.526-12.525h10.978v12.525H35.906V54.651zM59.41 67.176H49.135V54.651h12.526v10.274a2.255 2.255 0 0 1-2.252 2.251z" fill-rule="evenodd" class="s444b1MTM4" fill="#fff"/><path d="m118.062 27.462-9.501-11.315h-5.223v26.11h4.787V23.11l9.937 11.786 9.9-11.786v19.147h4.823v-26.11h-5.258Zm38.73-6.238H145.44c-1.378 0-2.557.49-3.536 1.469-.979.979-1.468 2.158-1.468 3.536v11.024c0 1.378.49 2.556 1.468 3.536.98.979 2.158 1.468 3.536 1.468h16.355v-4.75h-16.355c-.17 0-.254-.085-.254-.254v-3.119h16.61V26.23c0-1.378-.49-2.557-1.47-3.536-.979-.98-2.157-1.469-3.535-1.469Zm-11.605 8.123V26.23c0-.17.085-.254.254-.254h11.35c.17 0 .254.084.254.254v3.118Zm40.326-15.013v6.89h-11.641c-1.378 0-2.557.49-3.536 1.469-.979.979-1.468 2.158-1.468 3.536v11.024c0 1.378.49 2.556 1.468 3.536.98.979 2.158 1.468 3.536 1.468h16.391V14.334Zm-11.641 23.173c-.145 0-.218-.085-.218-.254V26.229c0-.17.073-.254.218-.254h11.387c.17 0 .254.084.254.254v11.024c0 .169-.085.254-.254.254Zm23.862 4.75h4.75V21.224h-4.75Zm0-27.923v4.787h4.75v-4.787Zm17.044 23.173c-.17 0-.254-.085-.254-.254V26.229c0-.17.085-.254.254-.254h16.282v-4.75h-16.282c-1.378 0-2.557.489-3.536 1.468-.98.979-1.469 2.158-1.469 3.536v11.024c0 1.378.49 2.556 1.469 3.536.98.979 2.158 1.468 3.536 1.468h16.355v-4.75Zm23.861 4.75h4.751V21.224h-4.75Zm0-27.923v4.787h4.751v-4.787Zm28.504 6.89h-16.355v21.033h4.75V26.23c0-.17.085-.254.254-.254h11.351c.17 0 .254.084.254.254v16.028h4.75V26.23c0-1.378-.49-2.557-1.468-3.536-.98-.98-2.158-1.469-3.536-1.469Zm27.85 0h-11.35c-1.378 0-2.557.49-3.536 1.469-.979.979-1.468 2.158-1.468 3.536v11.024c0 1.378.49 2.556 1.468 3.536.98.979 2.158 1.468 3.536 1.468h16.355v-4.75h-16.355c-.17 0-.254-.085-.254-.254v-3.119H300V26.23c0-1.378-.49-2.557-1.47-3.536-.979-.98-2.157-1.469-3.535-1.469Zm-11.604 8.123V26.23c0-.17.085-.254.254-.254h11.35c.17 0 .255.084.255.254v3.118Z" class="text" fill="#228cdd"/><path d="M129.376 56.316v-2.938H107.69c-1.209 0-2.236.423-3.082 1.27-.846.846-1.27 1.873-1.27 3.082v17.407c0 1.208.424 2.236 1.27 3.082.846.846 1.873 1.27 3.082 1.27h21.686V76.55H107.69a1.36 1.36 0 0 1-.997-.417 1.36 1.36 0 0 1-.417-.997V57.73c0-.387.139-.72.417-.997a1.36 1.36 0 0 1 .997-.417Zm24.26 2.14H136.63v2.973h17.008c.386 0 .719.139.997.417.278.278.417.61.417.997v4.642h-18.422V75.1c0 1.21.429 2.243 1.287 3.1s1.892 1.288 3.1 1.288h17.045V62.843c0-1.209-.43-2.242-1.287-3.1s-1.904-1.288-3.137-1.288Zm1.415 18.059h-14.034a1.36 1.36 0 0 1-.997-.417 1.36 1.36 0 0 1-.418-.998V70.46h15.449Zm26.581-18.06h-14.07v-6.89h-2.974v27.923h17.044c1.21 0 2.243-.429 3.101-1.287s1.287-1.892 1.287-3.1V62.842c0-1.209-.429-2.242-1.287-3.1s-1.892-1.288-3.1-1.288Zm1.415 16.645c0 .387-.14.72-.417.998a1.36 1.36 0 0 1-.998.417h-12.62c-.386 0-.725-.14-1.015-.417a1.333 1.333 0 0 1-.435-.998V62.843c0-.387.145-.72.435-.997.29-.278.629-.417 1.016-.417h12.62c.386 0 .719.139.997.417.278.278.417.61.417.997Zm9.283 4.388h2.974V58.455h-2.974Zm0-27.923v2.974h2.974v-2.974Zm27.742 6.89h-17.044v21.033h2.974V62.843c0-.387.145-.72.435-.997.29-.278.629-.417 1.015-.417h12.62c.387 0 .72.139.998.417.278.278.417.61.417.997v16.645h2.973V62.843c0-1.209-.429-2.242-1.287-3.1s-1.892-1.288-3.1-1.288Zm28.721 0h-12.62c-1.208 0-2.242.43-3.1 1.288s-1.287 1.891-1.287 3.1V75.1c0 1.21.429 2.243 1.287 3.1s1.892 1.288 3.1 1.288h17.045v-2.973h-17.044a1.36 1.36 0 0 1-.998-.417 1.36 1.36 0 0 1-.417-.998V70.46h18.459v-7.616c0-1.209-.43-2.242-1.288-3.1s-1.904-1.288-3.137-1.288Zm-14.034 9.03v-4.642c0-.387.14-.72.417-.997a1.36 1.36 0 0 1 .998-.417h12.62c.386 0 .719.139.997.417.278.278.417.61.417.997v4.642Zm37.896-6.056v-2.974h-9.102v-6.89h-2.974V75.1c0 1.21.423 2.243 1.27 3.1.846.86 1.885 1.288 3.118 1.288h7.688v-2.973h-7.688a1.36 1.36 0 0 1-.997-.417 1.36 1.36 0 0 1-.417-.998V61.43Z" class="text" fill="#91c5ee"/></svg>